<svg width="173" height="112" viewBox="0 0 173 112" fill="none" xmlns="http://www.w3.org/2000/svg">
<path d="M158.382 80.57C154.58 85.8928 152.763 88.2728 147.885 92.9684C141.069 99.5372 131.437 107.733 119.534 107.792C108.955 107.845 105.993 104.93 91.6338 105C77.2748 105.048 74.5068 107.873 63.9105 107.797C52.0168 107.733 42.904 100.346 36.0835 93.7972C17.3606 75.754 15.3494 53.5052 26.7804 42.3864C35.119 34.2552 48.3232 29.4784 60.7144 29.4784C73.339 29.4784 81.2754 34.8264 91.7073 34.8264C101.845 34.8264 108.008 29.47 122.609 29.47C133.651 29.47 145.329 33.278 153.667 39.8412C127.423 48.9412 132.323 74.3288 158.382 80.57Z" fill="#DBCBB3"/>
<path d="M64.3257 109.197H63.8889C51.1475 109.13 41.7752 101.769 34.2886 94.5784C16.089 77.0392 12.1749 54.0652 24.9812 41.608C33.5404 33.2612 47.2333 28.0756 60.7144 28.0756C67.7684 28.0756 73.5077 29.6576 78.5723 31.052C82.9968 32.2728 87.179 33.4236 91.7073 33.4236C95.8507 33.4236 99.3236 32.41 103.342 31.234C108.419 29.75 114.18 28.0672 122.609 28.0672C134.443 28.0672 146.678 32.1356 155.341 38.9508L157.015 40.2696L154.688 41.076C143.655 44.9008 137.6 52.1892 138.491 60.5724C139.399 69.1404 147.5 76.4736 159.13 79.2568L161.322 79.7832L160.341 81.158C156.405 86.6656 154.593 89.0148 149.675 93.7524C141.786 101.354 132.038 109.133 119.547 109.194C119.543 109.194 119.543 109.194 119.539 109.194C114.21 109.194 110.845 108.564 107.277 107.901C103.342 107.159 99.2631 106.4 92.1614 106.4H91.6554C84.3245 106.422 80.2201 107.184 76.2584 107.92C72.7162 108.576 69.3687 109.197 64.3257 109.197ZM60.7144 30.8756C48.6649 30.8756 36.3516 35.5824 28.5839 43.1564C16.9021 54.5188 20.9027 76.65 37.8784 93.0132C44.7335 99.5988 53.1932 106.338 63.9278 106.394L64.3257 107.794V106.394C68.7589 106.394 71.6826 105.854 75.0647 105.227C79.1129 104.474 83.7017 103.625 91.6251 103.597H92.1614C99.8729 103.597 104.449 104.451 108.48 105.204C111.888 105.843 114.833 106.392 119.258 106.392C130.001 106.338 138.833 99.1816 146.09 92.1872C150.419 88.0152 152.266 85.75 155.466 81.3064C143.413 77.7896 135.148 69.888 134.174 60.7628C133.227 51.8532 139.222 44.0216 150.32 39.48C142.626 34.0592 132.427 30.8644 122.605 30.8644C115.11 30.8644 110.028 32.3484 105.119 33.782C100.829 35.0364 96.7762 36.2208 91.703 36.2208C86.2967 36.2208 81.5046 34.902 76.8769 33.6252C71.9637 32.2756 66.8861 30.8756 60.7144 30.8756Z" fill="#EEDDC9"/>
<path d="M113.916 20.9748C119.604 16.3996 124.538 10.78 122.968 4.20001C113.696 4.60041 102.226 7.47321 95.8896 12.2808C90.146 16.6628 87.3261 23.1028 89.1815 29.4C99.302 29.5988 107.835 25.886 113.916 20.9748Z" fill="#E1EBF2"/>
<path d="M89.9557 30.8084L87.378 30.7664L87.0536 29.6632C85.1549 23.212 87.9056 16.2036 94.2374 11.3764C101.322 6.00321 113.7 3.20041 122.821 2.80281L124.802 2.71881L125.105 3.98721C126.939 11.676 120.559 17.8668 115.603 21.854C108.449 27.6276 99.3409 30.8084 89.9557 30.8084ZM121.052 5.72881C113.293 6.37561 103.242 8.85921 97.5331 13.1908C92.3993 17.1024 89.9773 22.6828 91.0239 27.9916C98.7008 27.7564 106.192 24.9732 112.229 20.0984C118.678 14.9128 121.515 10.3096 121.052 5.72881Z" fill="#EEDDC9"/>
</svg>
